<?xml version="1.0" standalone="no"?>
<!DOCTYPE svg PUBLIC "-//W3C//DTD SVG 20010904//EN"
 "http://www.w3.org/TR/2001/REC-SVG-20010904/DTD/svg10.dtd">
<svg version="1.0" xmlns="http://www.w3.org/2000/svg"
 width="16.000000pt" height="16.000000pt" viewBox="0 0 16.000000 16.000000"
 preserveAspectRatio="xMidYMid meet">

<g transform="translate(0.000000,16.000000) scale(0.100000,-0.100000)"
fill="#000000" stroke="none">
<path d="M44 128 c-6 -31 -7 -32 -15 -10 -16 43 -29 22 -29 -48 l0 -70 31 0
c29 0 30 2 24 31 -7 29 -6 30 14 20 12 -7 21 -21 21 -31 0 -16 7 -20 35 -20
l35 0 0 55 c0 44 -4 57 -20 67 -11 7 -20 18 -20 25 0 8 -13 13 -34 13 -31 0
-35 -4 -42 -32z m56 -39 c0 -6 -7 -9 -15 -5 -8 3 -15 1 -15 -5 0 -6 -4 -7 -10
-4 -18 11 -10 25 15 25 14 0 25 -5 25 -11z"/>
</g>
</svg>
